<svg xmlns="http://www.w3.org/2000/svg" version="1.1" xmlns:xlink="http://www.w3.org/1999/xlink" xmlns:svgjs="http://svgjs.dev/svgjs" viewBox="0 0 5.11069749573549 4.176020020574268"><g transform="matrix(0.8436552110336337,0,0,0.8436552110336337,2.5541196537056288,3.6813064038070697)"><g transform="matrix(1,0,0,1,0,0)"><path d=" M -2.0929583673217684 -2.0216465006760287 L -1.4105914209469839 -1.8444450602328093 L -1.459855934885808 -1.6547373701768409 L -2.142222881260593 -1.8319388106200603 L -2.0929583673217684 -2.0216465006760287 M -1.5219771626313936 -2.5494171107912456 L -1.383199025114572 -2.4639207450944385 L -1.6208054892903603 -2.078236718744008 L -1.7595836268071818 -2.1637330844408145 L -1.5219771626313936 -2.5494171107912456 M -0.7071173253773388 -3.487779146393217 L -0.3634760796246067 -2.87220161738691 L -0.5346153642845161 -2.776664476723739 L -0.724227342437442 -3.1163235671967224 L -0.6507455931608832 -2.711835702702302 L -0.7939437701212155 -2.631896462555567 L -1.1020214399395363 -2.9088588234628094 L -0.9109471586131943 -2.5665802541429907 L -1.0820864432731037 -2.47104311347982 L -1.425727689025836 -3.0866206424861264 L -1.2187888601258434 -3.2021425931859815 L -0.8409946570210667 -2.8885113764673216 L -0.9131829946617195 -3.372744630084501 L -0.7071173253773388 -3.487779146393217 M -0.008310511834663192 -3.5673521493250213 L -0.02692354356797022 -3.1587758956713183 Q -0.029517535765521574 -3.1018349507855945 -0.0044557588997743425 -3.0696610896506376 Q 0.020606017965972834 -3.0374872285156806 0.07455007101560601 -3.0350297622232634 Q 0.12849412406523913 -3.032572295930846 0.15739915456664744 -3.062788172746068 Q 0.18630418506805574 -3.09300404956129 0.18885266863056233 -3.14894603050165 L 0.20746570036386935 -3.557522284155353 L 0.4032626336551304 -3.5486025916865795 L 0.3846496019218233 -3.140026338032877 Q 0.38023526432248156 -3.04312683533261 0.33616040106200884 -2.97656365911204 Q 0.2920855378015361 -2.9100004828914705 0.22008853174435972 -2.8787445855470826 Q 0.14809152568718337 -2.847488688202695 0.06218062638591576 -2.8514024308165444 Q -0.02373027291535179 -2.855316173430394 -0.089590291318349 -2.8928522624109583 Q -0.15545030972134619 -2.930388351391523 -0.19081583443480016 -3.0000699821254697 Q -0.22618135914825416 -3.0697516128594162 -0.22172151291386763 -3.1676500795050466 L -0.2031084811805606 -3.5762263331587496 L -0.008310511834663192 -3.5673521493250213 M 0.5601954705369584 -2.817863270501234 Q 0.518376628263709 -2.906826377635175 0.5647746088534131 -3.0056404828894223 L 0.7487891313118771 -2.906546307861909 Q 0.7338875001700464 -2.8725471697947045 0.7425558013721665 -2.8485709199989313 Q 0.7512241025742865 -2.8245946702031577 0.7776376703912911 -2.8103706259408354 Q 0.801409881426595 -2.797568986104745 0.8232186159045594 -2.8011577324693757 Q 0.8450273503825236 -2.804746478834006 0.8564065857923816 -2.8258773330876097 Q 0.8711047648634482 -2.853171353165181 0.8536319410556601 -2.881888951048395 Q 0.8361591172478718 -2.9106065489316095 0.7888865512946547 -2.959914808971878 Q 0.7390404459166584 -3.0128805127682563 0.7118151232305666 -3.051960965742066 Q 0.6845898005444748 -3.0910414187158763 0.6765321488994996 -3.142515434004838 Q 0.6684744972545245 -3.193989449293799 0.700241529440378 -3.2529797507517753 Q 0.7324826964349755 -3.312850504470319 0.7854136115183352 -3.3394318556105103 Q 0.8383445266016949 -3.366013206750702 0.9030250324543059 -3.3595764247402276 Q 0.9677055383069167 -3.3531396427297526 1.0346199101099947 -3.3171053972652027 Q 1.1429155381597127 -3.2587868157896804 1.1803660278085886 -3.1733119023643983 Q 1.2178165174574649 -3.0878369889391166 1.1729087586509142 -2.9938992797964477 L 0.9853724271501828 -3.094889994058937 Q 0.9996642887694268 -3.1235386012058193 0.990962078888846 -3.146397331336654 Q 0.9822598690082652 -3.1692560614674887 0.9567267534518277 -3.1830059709210667 Q 0.9373568037193577 -3.1934369367134368 0.9188667195577493 -3.1886289446484852 Q 0.9003766353961409 -3.1838209525835337 0.8889973999862828 -3.1626900983299304 Q 0.8795147038114012 -3.145081053118594 0.8862867591233976 -3.1249654058048417 Q 0.893058814435394 -3.10484975849109 0.9083308009366179 -3.0846999091540246 Q 0.9236027874378416 -3.064550059816959 0.9556369822234431 -3.029126757254406 Q 1.0037221830803058 -2.977109323075516 1.03135382321822 -2.936674283032395 Q 1.0589854633561346 -2.896239242989274 1.067517249809854 -2.84564567996088 Q 1.0760490362635733 -2.795052116932485 1.0466526781214402 -2.7404640767773425 Q 1.016782185170563 -2.6849955843616335 0.9653411985255042 -2.655908217808731 Q 0.9139002118804453 -2.6268208512558293 0.8477633929231416 -2.6294987568196646 Q 0.7816265739658378 -2.6321766623835 0.7103099408599259 -2.6705815818917706 Q 0.6020143128102078 -2.728900163367293 0.5601954705369584 -2.817863270501234 M 1.6467404217352881 -2.820637524521946 L 1.1379616638346697 -2.332611730624632 L 1.00228357077953 -2.474059442040974 L 1.5110623286801483 -2.962085235938288 L 1.6467404217352881 -2.820637524521946 M 1.738266810722283 -2.4540736396141205 Q 1.8303198569113397 -2.4462802650359694 1.9037058248828376 -2.390739741947991 Q 1.9770917928543352 -2.335199218860012 2.0181476646728234 -2.239646011748875 Q 2.070257040442442 -2.118366941184739 2.041012111234065 -2.0078455219231452 Q 2.011767182025687 -1.8973241026615515 1.9108586686298512 -1.8256688730949497 L 1.8275626209981115 -2.0195316298300456 Q 1.8568132625355558 -2.052779185674768 1.8628829321837728 -2.0918484716979537 Q 1.8689526018319893 -2.13091775772114 1.851582809908783 -2.171344114575852 Q 1.824738586027464 -2.233821211533134 1.7641896114742053 -2.2518855875408685 Q 1.7036406369209465 -2.269949963548603 1.6292193890747722 -2.237973755689973 Q 1.5538793603909908 -2.2056027798330886 1.525306593696362 -2.149245907994649 Q 1.4967338270017332 -2.092889036156209 1.523578050883052 -2.030411939198927 Q 1.5409478428062586 -1.9899855823442154 1.5734669683375395 -1.9674965522477263 Q 1.6059860938688206 -1.9450075221512373 1.6502379193399432 -1.9433414061668903 L 1.733533966971683 -1.7494786494317944 Q 1.6120975176666033 -1.7256000234207611 1.5117943487723813 -1.7804591549284434 Q 1.4114911798781593 -1.835318286436126 1.3593818041085401 -1.9565973570002617 Q 1.3183259322900522 -2.052150564111399 1.3285490205407997 -2.1436149750405544 Q 1.338772108791547 -2.2350793859697102 1.3964803391324456 -2.307219944263376 Q 1.4541885694733443 -2.3793605025570415 1.5506605574220886 -2.420811142373784 Q 1.646213764533226 -2.4618670141922716 1.738266810722283 -2.4540736396141205" fill="#0e1425" fill-rule="nonzero"></path></g><g transform="matrix(1,0,0,1,0,0)"><g transform="matrix(1,0,0,1,0,0)" clip-path="url(#SvgjsClipPath67423)"><g clip-path="url(#a73b2c667-499a-4c75-a8be-d9ea2c5b9bd18e3caff9-09f4-4c26-b064-738a45beca4a)"><path d=" M 0.8817181743680971 -2.154658331600338 C 0.7127986576861418 -2.2985562212570683 0.5165135015149735 -2.410918200253714 0.3023658407236529 -2.4851311410563333 L 0.3023658407236529 -2.4862607856172914 C 0.29468425770913664 -2.4889201571878807 0.28662612650763486 -2.4907040542237273 0.27890688867442015 -2.493259875042895 C 0.24760632063120225 -2.5036290707420243 0.21589154958229972 -2.5129580520746044 0.18385671257445924 -2.5216374877846337 C 0.1695290540596388 -2.5255300546676023 0.15536613537662491 -2.529733273804834 0.14089256443934772 -2.533268119910166 C 0.09463361966810768 -2.544573979224423 0.04785692113976214 -2.5545901609982526 0.0002612303047216935 -2.562257623455757 L 0.00041184957951623247 -2.341059097863122 L 0.00041184957951623247 -1.2950929577578654 C -0.08559175632810423 -1.343728862959455 -0.18356959458188216 -1.3737679945762695 -0.2894737721717169 -1.3737679945762695 C -0.6164070286700429 -1.3737679945762695 -0.8814357632278574 -1.109144049319465 -0.8814357632278574 -0.7826814780548714 C -0.8814357632278574 -0.45624244105196476 -0.6164070286700429 -0.191604375238148 -0.2894737721717169 -0.191604375238148 C 0.03746889803128384 -0.191604375238148 0.30249763258909823 -0.45624244105196476 0.30249763258909823 -0.7826814780548714 L 0.30248351203208634 -0.7828085630679791 L 0.3023893749853399 -2.1643450337105548 C 0.43545679741388277 -2.1073215176438507 0.5590116712686901 -2.032251929715838 0.6691237748480943 -1.9412731808876642 Z M 0.0004118495795158994 -0.7843100489635864 L 0.0004118495795158994 -0.784060585789708 C 0.00033653994211879645 -0.6233921812550853 -0.13008563147284713 -0.49316299078595005 -0.29101761973835993 -0.49316299078595005 C -0.45198726282257146 -0.49316299078595005 -0.5824753301702601 -0.623462784040145 -0.5824753301702601 -0.7841829639504785 C -0.5824753301702601 -0.944907850713149 -0.45198726282257146 -1.0752123508196818 -0.29101761973835993 -1.0752123508196818 C -0.13008563147284713 -1.0752123508196818 0.00033653994211879645 -0.9449784534982089 0.0004118495795158994 -0.7843100489635864" fill="#12100f" transform="matrix(1,0,0,1,0,0)" fill-rule="nonzero"></path></g><g clip-path="url(#a73b2c667-499a-4c75-a8be-d9ea2c5b9bd18e3caff9-09f4-4c26-b064-738a45beca4a)"><path d=" M 0.8808285792763424 -2.1541735258095933 C 0.7120502681645069 -2.297986692124252 0.5159345586774824 -2.41029218889285 0.3019704651273176 -2.484458061172096 L 0.3019704651273176 -2.485592412585391 C 0.2942935889651388 -2.488247077303643 0.28624487146831123 -2.4900262674871523 0.27853034048743397 -2.4925820883063206 C 0.24725801355824006 -2.5029512840054498 0.2155667767710241 -2.512270851633355 0.1835601808772076 -2.5209455804910466 C 0.16924193606706184 -2.524838147374015 0.15509313794105983 -2.5290413665112474 0.1406336875607943 -2.532576212616579 C 0.09441239760825326 -2.5438726582261615 0.04767335389860616 -2.5538794262953166 0.00012002473460159813 -2.5615421819004833 L 0.0002706440093961371 -2.3404707413209564 L 0.0002706440093961371 -1.2950882509055281 C -0.08566235911316455 -1.3436959149930936 -0.1835554740248706 -1.3737162192005588 -0.2893655145679588 -1.3737162192005588 C -0.6160257736307198 -1.3737162192005588 -0.8808285792763424 -1.1092381863662115 -0.8808285792763424 -0.7829591823427735 C -0.8808285792763424 -0.4567037125810227 -0.6160257736307198 -0.1922068523373257 -0.28936551456795856 -0.1922068523373257 C 0.037299451347139856 -0.1922068523373257 0.3021022569927627 -0.4567037125810227 0.3021022569927627 -0.7829591823427735 C 0.3021022569927627 -0.7830062508661468 0.3020881364357506 -0.7830391988325083 0.3020881364357506 -0.7830862673558816 L 0.3019939993890042 -2.1638508142151354 C 0.43494845736145127 -2.10686495296713 0.5583950736125001 -2.0318330198578165 0.668413040145158 -1.940906046405353 Z M 0.0002706440093961371 -0.7845830463991512 L 0.0002706440093961371 -0.7843335832252731 C 0.0001953343719988121 -0.6237593157373968 -0.13011857943920857 -0.493600728053321 -0.29091406898693895 -0.493600728053321 C -0.4517472133533682 -0.493600728053321 -0.5821176093926232 -0.6238252116701195 -0.5821176093926232 -0.784460668238381 C -0.5821176093926232 -0.9450961248066421 -0.4517472133533682 -1.075325315275778 -0.29091406898693895 -1.075325315275778 C -0.13011857943920857 -1.075325315275778 0.0001953343719988121 -0.945162020739365 0.0002706440093961371 -0.7845830463991517 Z" fill="none" transform="matrix(1,0,0,1,0,0)" fill-rule="nonzero" stroke-dasharray="none" stroke-miterlimit="10" stroke-linejoin="miter" stroke-linecap="butt" stroke-width="0.009413704674651982" stroke="#222423"></path></g></g></g></g><defs><clipPath id="SvgjsClipPath67423"><path d=" M -0.8855354316136683 -2.5662490342378095 h 1.7710708632273366 v 2.3787490342378095 h -1.7710708632273366 Z"></path></clipPath><clipPath id="a73b2c667-499a-4c75-a8be-d9ea2c5b9bd18e3caff9-09f4-4c26-b064-738a45beca4a"><path d=" M -0.8855354316136684 -0.18750470685233722 L 0.8877523590645489 -0.18750470685233722 L 0.8877523590645489 -2.5670727333968415 L -0.8855354316136684 -2.5670727333968415 Z"></path></clipPath></defs></svg>